<?xml version="1.0" encoding="UTF-8"?>
<!DOCTYPE svg PUBLIC "-//W3C//DTD SVG 1.1//EN" "http://www.w3.org/Graphics/SVG/1.1/DTD/svg11.dtd">
<!-- Creator: CorelDRAW -->
<svg xmlns="http://www.w3.org/2000/svg" xml:space="preserve" width="56.1882mm" height="56.1882mm" version="1.1" style="shape-rendering:geometricPrecision; text-rendering:geometricPrecision; image-rendering:optimizeQuality; fill-rule:evenodd; clip-rule:evenodd"
viewBox="0 0 4423.35 4423.35"
 xmlns:xlink="http://www.w3.org/1999/xlink"
 xmlns:xodm="http://www.corel.com/coreldraw/odm/2003">
 <defs>
  <style type="text/css">
   <![CDATA[
    .str0 {stroke:#822839;stroke-width:13.33;stroke-miterlimit:22.9256}
    .fil0 {fill:#822839}
    .fil1 {fill:#FDE4C7;fill-rule:nonzero}
   ]]>
  </style>
 </defs>
 <g id="Layer_x0020_1">
  <metadata id="CorelCorpID_0Corel-Layer"/>
  <circle class="fil0 str0" cx="2211.68" cy="2211.68" r="2205.01"/>
  <path class="fil1" d="M1967.28 3611.39c170.67,11.76 327.29,-0.06 469.74,-35.43 142.44,-35.49 266.21,-87.67 371.31,-156.62 105.04,-68.94 189.72,-150.67 254.09,-245.2 64.38,-94.52 103.77,-195.64 118.19,-303.39 13.09,-94.52 2.28,-177.51 -32.48,-249.1 -34.84,-71.58 -88.65,-131.33 -161.55,-179.26 -72.91,-47.93 -162.21,-83.71 -267.91,-107.38 -105.69,-23.65 -222.91,-34.83 -351.55,-33.5 -3.97,-2.58 -6.55,-5.89 -7.87,-9.84 -2.64,-6.56 4.57,-12.45 21.68,-17.72 30.15,-9.19 69.25,-19.34 117.16,-30.51 47.93,-11.16 92.91,-21.98 134.94,-32.54 86.66,-28.83 174.64,-71.17 263.94,-127.01 89.3,-55.79 171.39,-121.13 246.22,-195.95 74.83,-74.83 138.85,-157.29 192.05,-247.25 53.21,-89.96 87.02,-182.21 101.44,-276.79 9.18,-55.12 10.81,-112.54 4.92,-172.3 -5.89,-59.74 -22.33,-114.28 -49.24,-163.52 -26.91,-49.24 -66,-89.3 -117.16,-120.17 -51.23,-30.86 -118.18,-45.64 -200.94,-44.31 -91.94,2.65 -174.03,18.44 -246.22,47.31 -72.24,28.89 -136.92,66.3 -194.03,112.24 -57.11,46.01 -107.67,98.49 -151.63,157.58 -44.02,59.1 -83.42,119.87 -118.19,182.21 -34.83,62.4 -66.36,124.12 -94.59,185.14 -28.22,61.07 -54.83,116.57 -79.75,166.47 -10.52,-89.3 -39.1,-166.11 -85.7,-230.49 -46.6,-64.32 -102.75,-116.2 -168.39,-155.6 -65.7,-39.39 -136.63,-65.94 -212.77,-79.75 -76.14,-13.81 -148.39,-14.78 -216.66,-3 -46.01,7.92 -90.33,25.99 -132.96,54.22 -42.7,28.22 -80.78,62.69 -114.22,103.41 -33.52,40.72 -61.08,85.04 -82.75,132.96 -21.68,47.93 -34.47,95.55 -38.38,142.74 -11.83,118.19 -2.94,227.2 26.61,327 29.55,99.81 73.5,191.09 131.93,273.85 58.43,82.75 128.7,156.92 210.8,222.56 82.02,65.7 170.37,122.81 264.89,171.33 74.83,-106.29 149.06,-217.93 222.62,-334.8 73.51,-116.87 145.75,-232.1 216.68,-345.72 70.86,-113.57 140.47,-222.57 208.74,-326.93 68.29,-104.38 134.59,-197.94 198.97,-280.7 64.37,-82.75 126.71,-151.99 187.13,-207.85 60.41,-55.78 118.85,-91.58 175.36,-107.37 30.15,-7.87 58.07,-12.43 83.65,-13.75 25.58,-1.32 43.66,1.02 54.18,6.9 10.5,5.89 11.16,14.12 1.98,24.62 -9.19,10.5 -33.45,23.59 -72.85,39.34 -51.23,19.7 -103.77,58.13 -157.58,115.24 -53.86,57.17 -109.06,127.74 -165.5,211.74 -56.45,84.08 -114.22,178.29 -173.31,282.67 -59.1,104.44 -119.51,214.4 -181.25,329.94 -61.74,115.54 -125.09,233.06 -190.07,352.57 -64.98,119.51 -131.64,235.77 -199.92,348.67 131.28,48.59 261.29,83.35 389.99,104.38 128.69,21.01 246.22,28.28 352.64,21.67 -102.45,35.5 -224.96,51.59 -367.41,48.28 -142.44,-3.24 -289.88,-25.28 -442.17,-65.99 -77.48,122.15 -155.97,234.39 -235.42,336.84 -79.45,102.45 -162.5,188.45 -249.15,257.99 72.18,36.74 152.65,67.32 241.29,91.63 88.64,24.2 187.43,40.3 296.49,48.23zm-1384.78 -403.68c86.66,88.04 173.02,140.59 259.02,157.64 85.99,17.06 172.36,7.86 259.06,-27.62 -48.64,-55.14 -90.67,-113.27 -126.11,-174.35 -35.43,-61 -62.99,-123.04 -82.69,-186.1 -5.29,-11.82 -8.23,-23.96 -8.9,-36.45 -0.65,-12.49 0.97,-20 4.94,-22.64 3.96,-1.32 9.18,2.65 15.78,11.83 6.55,9.19 11.12,18.37 13.75,27.56 22.34,49.9 54.17,104.74 95.55,164.49 41.31,59.74 94.82,119.14 160.53,178.24 86.66,-48.59 172.36,-116.57 257.03,-203.89 84.68,-87.31 168.45,-186.76 251.21,-298.4 -116.92,-47.26 -228.57,-105.7 -334.92,-175.3 -106.36,-69.6 -198.9,-150.36 -277.69,-242.31 -78.79,-91.89 -140.52,-194.99 -185.2,-309.22 -44.68,-114.22 -63.72,-239.67 -57.11,-376.24 5.29,-95.85 26.61,-185.5 64.02,-268.86 37.41,-83.35 87.62,-155.9 150.68,-217.63 63.06,-61.74 137.58,-109.66 223.58,-143.84 86.01,-34.1 180.22,-50.56 282.67,-49.24 94.52,2.65 175.29,12.79 242.26,30.51 66.95,17.78 124.72,42.03 173.37,72.9 48.59,30.87 90.26,67.32 125.09,109.36 34.77,42.04 65.94,87.97 93.57,137.82 6.54,-22.29 19.33,-55.43 38.37,-99.44 19.04,-43.97 45.27,-92.55 78.79,-145.75 33.51,-53.22 74.53,-107.69 123.12,-163.54 48.58,-55.78 105.39,-107.31 170.37,-154.57 64.98,-47.27 138.55,-87.63 220.64,-121.13 82.03,-33.5 174.33,-53.51 276.79,-60.11 123.4,-7.87 229.46,5.27 318.1,39.39 88.64,34.17 160.16,82.75 214.7,145.75 54.47,63.06 92.24,136.56 113.25,220.64 21.03,84.08 25.59,172.06 13.82,263.94 -13.16,102.45 -50.27,203.52 -111.35,303.33 -61.07,99.81 -135.6,192.11 -223.58,276.79 -87.97,84.67 -185.14,159.2 -291.5,223.52 -106.41,64.37 -211.44,112.29 -315.16,143.82 74.83,2.65 152.3,14.78 232.42,36.46 80.11,21.67 153.31,55.48 219.61,101.43 66.31,46 121.13,106.05 164.49,180.22 43.36,74.22 66.36,165.15 69,272.83 1.26,95.84 -15.85,187.43 -51.29,274.75 -35.43,87.31 -86,168.09 -151.63,242.32 -65.7,74.16 -144.49,140.81 -236.38,199.91 -91.95,59.09 -192.72,107.68 -302.37,145.75 -109.66,38.08 -226.52,64.98 -350.6,80.78 -124.13,15.67 -251.2,16.99 -381.16,3.9 -136.57,-14.41 -262.01,-41.98 -376.23,-82.69 -114.24,-40.72 -217.34,-91.94 -309.23,-153.68 -59.09,38.08 -119.2,66 -180.28,83.78 -61.08,17.65 -123.12,23.24 -186.11,16.7 -73.56,-5.29 -136.63,-22.35 -189.11,-51.17 -52.54,-28.95 -96.21,-62.76 -130.97,-101.44 -34.83,-38.79 -61.44,-78.79 -79.81,-120.16 -18.37,-41.37 -29.91,-77.46 -34.47,-108.33 -4.57,-30.88 -2.28,-52.19 6.9,-64.03 9.19,-11.83 23,-7.92 41.38,11.78z"/>
 </g>
</svg>
