<?xml version="1.0" encoding="UTF-8"?>
<!DOCTYPE svg PUBLIC "-//W3C//DTD SVG 1.1//EN" "http://www.w3.org/Graphics/SVG/1.1/DTD/svg11.dtd">
<!-- Creator: CorelDRAW X7 -->
<svg xmlns="http://www.w3.org/2000/svg" xml:space="preserve" width="178.941mm" height="62.8079mm" version="1.1" style="shape-rendering:geometricPrecision; text-rendering:geometricPrecision; image-rendering:optimizeQuality; fill-rule:evenodd; clip-rule:evenodd"
viewBox="0 0 16863 5919"
 xmlns:xlink="http://www.w3.org/1999/xlink">
 <defs>
  <style type="text/css">
   <![CDATA[
    .fil0 {fill:#FDE4C7;fill-rule:nonzero}
   ]]>
  </style>
 </defs>
 <g id="Layer_x0020_1">
  <metadata id="CorelCorpID_0Corel-Layer"/>
  <g id="_3031042029344">
   <path class="fil0" d="M6337 53l905 0c0,58 0,107 0,156 0,1267 0,2535 1,3803 0,50 0,101 3,152 9,152 75,233 225,248 1497,150 2956,520 4436,765 870,143 1745,233 2628,178 603,-38 1191,-146 1689,-526 182,-138 331,-305 414,-524 76,-201 58,-388 -67,-564 -40,-56 -90,-110 -111,-173 -17,-49 2,-110 5,-165 50,12 112,10 147,39 195,170 266,394 249,645 -23,325 -175,588 -413,803 -438,395 -976,560 -1541,657 -956,163 -1902,63 -2842,-125 -970,-194 -1934,-417 -2905,-605 -755,-147 -1517,-258 -2291,-236 -41,1 -82,0 -150,0 0,-79 0,-150 0,-222 -5,-1281 -10,-2563 -17,-3844 -1,-247 59,-337 -294,-415 -12,-3 -22,-14 -71,-47z"/>
   <path class="fil0" d="M2483 2132c132,46 245,79 354,124 394,163 661,436 704,877 48,484 -108,880 -531,1149 -255,162 -534,261 -831,274 -390,16 -781,4 -1186,4l0 -1739c168,8 336,15 516,23 3,56 7,105 7,154 1,452 5,904 -1,1356 -1,112 36,149 142,140 161,-13 325,-5 481,-36 547,-111 898,-635 840,-1241 -10,-104 -27,-211 -58,-311 -128,-418 -413,-652 -847,-706 -67,-8 -135,-18 -204,-44 81,-21 166,-34 244,-63 376,-141 594,-516 560,-953 -57,-730 -629,-1160 -1386,-1029 -174,30 -353,80 -512,158 -655,320 -835,985 -444,1600 218,343 518,583 908,707 22,7 44,13 65,21 3,1 4,8 5,13 -846,-5 -1402,-536 -1296,-1374 87,-688 556,-1123 1303,-1212 469,-57 931,-24 1352,224 305,179 520,429 567,791 56,433 -167,811 -586,1016 -49,24 -99,46 -166,77z"/>
   <path class="fil0" d="M15594 2591c-253,152 -503,293 -743,450 -114,75 -218,170 -311,270 -157,170 -219,382 -205,611 15,234 106,430 337,527 225,95 434,48 619,-101 205,-166 309,-387 312,-649 4,-340 -1,-681 -2,-1021 0,-31 -5,-61 -7,-87zm774 1859c-259,224 -612,59 -774,-351 -240,460 -640,554 -1100,478 -309,-50 -561,-203 -651,-524 -90,-319 6,-609 262,-804 208,-160 459,-265 696,-384 164,-83 342,-138 503,-224 301,-161 378,-383 263,-709 -88,-247 -352,-394 -635,-356 -221,30 -393,125 -469,349 -38,110 -34,213 43,312 86,111 51,242 -75,310 -110,60 -223,59 -329,-9 -117,-75 -152,-194 -142,-325 19,-240 152,-418 351,-533 457,-264 931,-274 1397,-28 285,151 414,418 421,732 12,469 5,940 8,1410 0,101 8,202 13,303 7,152 58,279 218,353z"/>
   <path class="fil0" d="M4372 3169c292,5 556,-30 801,-143 289,-133 525,-322 600,-657 105,-473 -218,-844 -683,-779 -200,29 -346,147 -454,309 -255,383 -283,813 -264,1270zm-5 54c53,396 122,760 413,1033 464,435 1250,228 1501,-395 19,-49 38,-98 57,-147 14,3 29,7 43,10 -5,43 -3,88 -16,128 -127,412 -498,690 -966,727 -926,73 -1590,-531 -1612,-1464 -12,-525 139,-982 548,-1331 410,-351 1127,-401 1584,-114 513,322 497,989 -32,1287 -364,205 -767,247 -1174,265 -109,5 -219,1 -346,1z"/>
   <path class="fil0" d="M9127 2959c13,3 25,5 37,8 -5,211 -4,219 201,194 186,-23 378,-44 553,-106 379,-133 629,-390 667,-812 33,-373 -216,-665 -572,-664 -352,0 -571,211 -679,514 -99,278 -140,576 -207,866zm2060 797c-11,53 -17,110 -36,161 -164,439 -632,706 -1142,676 -1063,-62 -1498,-877 -1387,-1788 60,-499 272,-925 743,-1159 476,-237 965,-243 1418,61 397,266 428,792 86,1126 -271,264 -620,329 -977,362 -232,22 -467,28 -717,42 40,432 129,836 502,1106 465,336 1156,113 1396,-440 23,-53 44,-106 66,-159 16,4 32,8 48,12z"/>
   <path class="fil0" d="M11442 1522l2200 0c-569,989 -1129,1963 -1707,2968 317,0 601,10 883,-2 518,-23 625,-131 683,-649 4,-35 10,-69 16,-110 72,60 89,351 57,837l-2274 0c567,-992 1121,-1959 1681,-2939 -386,0 -752,-11 -1117,5 -170,8 -258,147 -301,304 -29,107 -54,216 -81,324 -13,-2 -26,-4 -40,-5l0 -733z"/>
   <path class="fil0" d="M8262 4314c-187,-22 -350,-42 -525,-63 -3,-52 -8,-96 -8,-140 -3,-1194 -8,-2388 -4,-3583 0,-213 2,-404 -286,-438 7,-14 14,-27 21,-40 87,0 174,0 261,0 142,0 286,5 428,0 91,-4 119,29 118,119 -3,922 -4,1844 -5,2766 -1,451 0,902 0,1379z"/>
   <path class="fil0" d="M1506 2387c-32,0 -50,2 -68,0 -464,-69 -466,-69 -461,-532 3,-225 1,-451 22,-674 28,-314 223,-558 507,-657l0 1863z"/>
   <path class="fil0" d="M1050 5606l152 0c21,0 42,-1 64,-4 22,-2 43,-7 62,-15 20,-7 35,-19 47,-36 12,-17 18,-39 18,-67 0,-23 -4,-43 -13,-58 -9,-16 -21,-27 -36,-36 -15,-9 -32,-15 -51,-18 -20,-3 -39,-5 -59,-5l-184 0 0 239zm0 -317l135 0c25,0 48,-2 69,-6 21,-4 40,-11 56,-21 15,-10 28,-23 37,-39 9,-16 13,-36 13,-60 1,-30 -6,-53 -20,-68 -14,-14 -32,-24 -55,-28 -23,-5 -47,-7 -74,-7l-161 0 0 229zm-87 395l0 -703 247 0c35,0 67,3 96,9 28,5 53,15 74,28 21,13 37,31 48,54 11,22 17,51 17,85 0,36 -8,68 -25,96 -16,27 -41,48 -75,61 45,8 79,27 102,56 22,28 34,67 34,114 0,39 -8,72 -22,98 -15,26 -35,46 -60,61 -26,15 -55,26 -88,32 -34,6 -69,9 -106,9l-242 0z"/>
   <path class="fil0" d="M1664 5380l303 0c-1,-30 -7,-56 -20,-79 -13,-22 -30,-40 -51,-52 -22,-13 -47,-19 -77,-19 -33,0 -60,7 -82,21 -23,14 -40,32 -52,54 -11,23 -19,48 -21,75zm159 310c-56,0 -102,-11 -139,-34 -36,-23 -63,-55 -81,-95 -18,-40 -27,-87 -27,-138 0,-53 9,-99 28,-139 19,-40 47,-72 83,-95 37,-23 82,-35 135,-35 41,0 76,8 106,24 29,15 54,36 73,62 19,26 33,54 41,85 9,31 13,62 11,93 0,6 -1,12 -1,18 0,6 -1,12 -2,18l-388 0c2,30 10,58 22,82 13,25 31,44 54,58 23,15 52,22 87,22 17,0 34,-3 52,-7 17,-4 33,-12 48,-22 14,-11 24,-25 30,-43l87 0c-8,34 -23,62 -45,83 -22,22 -48,38 -79,48 -30,10 -62,15 -95,15z"/>
   <path class="fil0" d="M2342 5616c33,0 62,-6 86,-17 24,-11 43,-27 56,-48 13,-21 20,-47 20,-78l0 -25 -93 0c-21,0 -43,0 -64,1 -21,0 -41,3 -58,8 -17,4 -31,12 -41,23 -10,12 -16,28 -16,49 0,20 6,36 16,49 10,12 24,22 41,28 17,7 34,10 53,10zm-8 74c-24,0 -47,-3 -69,-9 -22,-6 -42,-16 -60,-29 -17,-13 -31,-29 -42,-49 -10,-19 -15,-42 -15,-68 0,-30 5,-55 16,-75 11,-21 26,-37 45,-49 18,-12 40,-21 64,-26 25,-5 50,-8 77,-8l154 0c0,-30 -4,-56 -12,-78 -9,-22 -22,-39 -41,-51 -18,-12 -43,-18 -73,-18 -19,0 -36,2 -52,6 -16,4 -30,10 -41,19 -11,8 -19,20 -25,34l-90 0c4,-23 14,-44 27,-61 14,-17 30,-31 50,-42 19,-10 40,-19 63,-24 23,-5 45,-8 68,-8 75,0 129,22 161,67 32,44 47,104 47,180l0 283 -70 0 -5 -66c-15,20 -32,35 -53,45 -20,11 -41,18 -63,22 -22,3 -42,5 -61,5z"/>
   <path class="fil0" d="M2937 5690c-73,0 -128,-19 -165,-57 -38,-39 -56,-98 -56,-178l0 -295 84 0 0 292c0,34 5,64 15,88 10,25 25,43 45,56 21,13 46,20 77,20 31,0 58,-7 78,-20 21,-13 36,-31 45,-56 10,-24 15,-54 15,-88l0 -292 84 0 0 295c0,80 -19,139 -57,178 -38,38 -93,57 -165,57z"/>
   <path class="fil0" d="M3488 5690c-56,0 -94,-15 -116,-45 -23,-29 -34,-72 -34,-127l0 -283 -85 0 0 -75 85 0 0 -157 85 0 0 157 161 0 0 75 -161 0 0 272c0,20 2,38 5,54 3,17 10,30 21,39 10,10 26,15 47,16 16,0 29,-3 41,-8 11,-6 21,-12 29,-19l37 61c-11,10 -23,17 -35,23 -13,6 -25,11 -38,13 -13,3 -27,4 -42,4z"/>
   <path class="fil0" d="M3915 5919c-40,0 -79,-6 -117,-17 -37,-11 -71,-31 -101,-59l37 -66c26,20 54,37 83,48 30,12 61,18 93,18 55,0 93,-15 117,-47 24,-31 35,-71 35,-120l0 -62c-12,18 -27,32 -45,44 -18,12 -38,20 -60,26 -22,5 -45,8 -68,8 -51,0 -92,-10 -122,-31 -30,-20 -51,-49 -64,-85 -12,-37 -19,-79 -19,-126l0 -290 85 0 0 266c0,24 1,47 4,70 3,23 10,43 19,61 9,19 23,33 41,44 18,11 41,17 71,17 38,0 68,-10 91,-28 23,-19 40,-44 50,-75 10,-31 15,-65 15,-103l0 -252 85 0 0 524c0,38 -5,72 -15,101 -10,29 -25,53 -45,73 -20,20 -44,35 -72,46 -28,10 -61,15 -98,15z"/>
   <path class="fil0" d="M4820 5692c-44,0 -86,-6 -126,-18 -39,-12 -73,-33 -101,-61 -27,-28 -46,-66 -56,-113l90 0c10,30 25,53 45,70 21,16 45,28 73,34 27,6 54,10 81,10 27,0 53,-4 76,-12 24,-7 43,-20 58,-37 15,-17 22,-40 22,-67 0,-21 -4,-38 -11,-51 -8,-14 -18,-24 -32,-33 -14,-8 -30,-15 -48,-20 -25,-8 -51,-15 -79,-20 -28,-5 -55,-12 -82,-19 -27,-7 -52,-17 -75,-28 -13,-6 -25,-15 -36,-24 -12,-10 -22,-21 -30,-34 -8,-13 -15,-28 -20,-44 -5,-17 -7,-35 -7,-55 0,-30 4,-56 13,-77 10,-22 22,-41 38,-56 16,-15 35,-28 56,-37 21,-9 44,-16 68,-20 24,-5 49,-7 73,-7 41,0 79,6 114,19 36,12 65,32 89,59 23,27 36,64 38,110l-85 0c-3,-28 -12,-50 -27,-66 -16,-15 -35,-27 -57,-33 -23,-7 -47,-10 -72,-10 -18,0 -37,1 -56,5 -19,3 -36,9 -52,17 -15,8 -28,20 -37,34 -9,14 -14,32 -14,54 0,17 3,33 10,46 6,13 14,24 25,33 11,9 23,17 37,23 31,13 67,23 106,29 38,6 75,15 109,27 19,7 38,15 54,25 17,10 31,22 42,35 12,13 21,28 27,45 7,17 10,36 10,57 0,39 -7,71 -20,98 -13,27 -32,49 -55,65 -23,17 -50,29 -80,36 -30,8 -62,11 -96,11z"/>
   <path class="fil0" d="M5419 5690c-55,0 -101,-11 -137,-34 -36,-23 -63,-55 -80,-95 -18,-40 -27,-86 -27,-137 0,-50 9,-95 28,-136 18,-41 46,-73 83,-98 38,-24 85,-36 143,-36 36,0 68,6 96,18 28,12 51,29 70,52 18,23 31,52 39,86l-87 0c-10,-29 -26,-50 -47,-62 -22,-12 -47,-18 -76,-18 -40,0 -72,9 -96,28 -24,18 -41,42 -52,72 -11,29 -16,61 -16,94 0,34 5,66 17,95 11,29 28,53 52,70 24,18 55,27 93,27 28,0 54,-6 79,-18 25,-12 41,-33 49,-64l88 0c-7,36 -21,65 -43,89 -21,23 -47,40 -78,51 -31,11 -64,16 -98,16z"/>
   <path class="fil0" d="M5745 5684l0 -703 85 0 0 260c12,-19 28,-35 46,-48 18,-12 38,-22 60,-29 22,-7 44,-10 68,-10 51,0 91,11 119,32 29,21 50,50 62,86 12,36 18,77 18,124l0 288 -85 0 0 -262c0,-24 -1,-47 -4,-69 -3,-23 -9,-44 -18,-63 -9,-18 -22,-33 -39,-44 -18,-12 -41,-17 -71,-17 -29,0 -53,6 -73,19 -21,12 -37,29 -49,50 -12,21 -20,44 -26,69 -6,24 -8,49 -8,73l0 244 -85 0z"/>
   <path class="fil0" d="M6562 5616c38,0 69,-9 94,-26 24,-17 42,-41 53,-70 12,-29 18,-62 18,-97 0,-36 -6,-69 -18,-98 -11,-29 -29,-52 -53,-69 -25,-18 -56,-26 -94,-26 -38,0 -69,8 -93,26 -25,17 -43,40 -54,69 -12,29 -18,62 -18,98 0,35 6,68 18,97 11,29 29,53 54,70 24,17 55,26 93,26zm0 74c-56,0 -102,-11 -139,-34 -37,-23 -65,-55 -83,-95 -18,-40 -27,-87 -27,-138 0,-53 9,-99 28,-139 18,-40 46,-72 83,-95 37,-23 84,-35 140,-35 55,0 100,12 137,35 37,23 65,55 83,95 18,40 27,86 27,139 0,51 -9,98 -28,138 -18,40 -46,72 -83,95 -37,23 -83,34 -138,34z"/>
   <path class="fil0" d="M7153 5616c39,0 70,-9 94,-26 24,-17 42,-41 54,-70 12,-29 17,-62 17,-97 0,-36 -5,-69 -17,-98 -12,-29 -30,-52 -54,-69 -24,-18 -55,-26 -94,-26 -38,0 -69,8 -93,26 -24,17 -42,40 -53,69 -12,29 -18,62 -18,98 0,35 6,68 18,97 11,29 29,53 53,70 24,17 55,26 93,26zm0 74c-55,0 -101,-11 -138,-34 -37,-23 -65,-55 -83,-95 -18,-40 -27,-87 -27,-138 0,-53 9,-99 27,-139 19,-40 47,-72 84,-95 37,-23 84,-35 139,-35 55,0 101,12 138,35 37,23 64,55 83,95 18,40 27,86 27,139 0,51 -9,98 -28,138 -19,40 -46,72 -83,95 -37,23 -83,34 -139,34z"/>
   <polygon class="fil0" points="7516,4981 7601,4981 7601,5684 7516,5684 "/>
  </g>
 </g>
</svg>
